# xmcd CD database file
#
# Track frame offsets:
#	150
#	4335
#	50067
#	78994
#	105646
#	138206
#	159292
#	199444
#	223613
#
# Disc length: 3477 seconds
#
# Revision: 0
# Processed by: cddbd v1.5.2PL0 Copyright (c) Steve Scherf et al.
# Submitted via: CDex 1.75
#
DISCID=780d9309
DTITLE=Andrew Holecek - Dream Yoga d1 - Waking Up from the Dream
DYEAR=2013
DGENRE=New Age
TTITLE0=Intro
TTITLE1=An adventure in consciousness
TTITLE2=What's possible in the night
TTITLE3=The product of ignorance
TTITLE4=Becoming fearless in the dark
TTITLE5=The science of sleep
TTITLE6=Sleep stages and cycles
TTITLE7=The psyche and substrate mind
TTITLE8=The clear light mind
EXTD=YEAR: 2013
EXTT0=
EXTT1=
EXTT2=
EXTT3=
EXTT4=
EXTT5=
EXTT6=
EXTT7=
EXTT8=
PLAYORDER=
